<svg xmlns="http://www.w3.org/2000/svg" viewBox="0 0 100 100"><defs><linearGradient id="g" x1="0" y1="0" x2="1" y2="1"><stop offset="0%" stop-color="#f59e0b"/><stop offset="100%" stop-color="#ea580c"/></linearGradient></defs><rect width="100" height="100" rx="22" fill="url(#g)"/><circle cx="50" cy="50" r="17" fill="white" opacity="0.95"/><rect x="47" y="14" width="6" height="13" rx="3" fill="white" opacity="0.9"/><rect x="47" y="73" width="6" height="13" rx="3" fill="white" opacity="0.9"/><rect x="14" y="47" width="13" height="6" rx="3" fill="white" opacity="0.9"/><rect x="73" y="47" width="13" height="6" rx="3" fill="white" opacity="0.9"/><rect x="22.5" y="18.5" width="6" height="13" rx="3" fill="white" opacity="0.9" transform="rotate(45 25.5 25)"/><rect x="68.5" y="18.5" width="6" height="13" rx="3" fill="white" opacity="0.9" transform="rotate(-45 74.5 25)"/><rect x="22.5" y="68.5" width="6" height="13" rx="3" fill="white" opacity="0.9" transform="rotate(-45 25.5 75)"/><rect x="68.5" y="68.5" width="6" height="13" rx="3" fill="white" opacity="0.9" transform="rotate(45 74.5 75)"/></svg>